<svg width="48" height="48" viewBox="0 0 48 48" fill="none" xmlns="http://www.w3.org/2000/svg">
<g clip-path="url(#clip0_71_2175)">
<rect width="48" height="48" rx="24" fill="black"/>
<path d="M24 11.6538C24.7535 11.6538 25.4601 12.0182 25.8981 12.6314L37.5644 28.9647C38.0724 29.676 38.142 30.612 37.7421 31.3892C37.3421 32.1662 36.5402 32.6538 35.6663 32.6538H26.3333C25.6245 32.6538 24.9532 32.3323 24.5104 31.7788L24 31.1408L23.4896 31.7788C23.0468 32.3323 22.3755 32.6538 21.6667 32.6538H12.3337C11.4598 32.6538 10.6579 32.1662 10.2579 31.3892C9.85799 30.612 9.92764 29.676 10.4357 28.9647L22.1019 12.6314L22.2774 12.4126C22.7165 11.9322 23.3406 11.6538 24 11.6538ZM12.3337 30.3205H21.6667L24 27.4038L26.3333 30.3205H35.6663L24 13.9872L12.3337 30.3205Z" fill="white"/>
</g>
<defs>
<clipPath id="clip0_71_2175">
<rect width="48" height="48" fill="white"/>
</clipPath>
</defs>
</svg>
